<?xml version="1.0"?>
<svg xmlns="http://www.w3.org/2000/svg" xmlns:xlink="http://www.w3.org/1999/xlink" version="1.1" id="Capa_1" x="0px" y="0px" viewBox="0 0 512 512" style="enable-background:new 0 0 512 512;" xml:space="preserve" width="512px" height="512px"><g><g>
	<g>
		<path d="M486.279,80.51L256,309.789L25.721,80.51C16.437,84.952,8.952,92.437,4.51,101.721l219.674,218.674    c16.963,16.963,46.685,16.963,63.618,0L507.49,101.719C503.048,92.436,495.563,84.952,486.279,80.51z" data-original="#000000" class="active-path" data-old_color="#000000" fill="#FF6600"/>
	</g>
</g><g>
	<g>
		<polygon points="63.633,76 256,267.367 448.367,76   " data-original="#000000" class="active-path" data-old_color="#000000" fill="#FF6600"/>
	</g>
</g><g>
	<g>
		<path d="M0,139.635V391c0,19.53,12.578,36.024,30,42.237V169.635L0,139.635z" data-original="#000000" class="active-path" data-old_color="#000000" fill="#FF6600"/>
	</g>
</g><g>
	<g>
		<path d="M422,229.633L310.027,341.605c-14.135,14.151-33.959,21.944-54.027,21.944s-38.892-7.793-53.042-21.943L90,229.638    l-30-30.002V436c143.19,0,248.741,0,392,0V199.633L422,229.633z" data-original="#000000" class="active-path" data-old_color="#000000" fill="#FF6600"/>
	</g>
</g><g>
	<g>
		<path d="M482,169.633v263.604c17.422-6.213,30-22.707,30-42.237V139.633L482,169.633z" data-original="#000000" class="active-path" data-old_color="#000000" fill="#FF6600"/>
	</g>
</g></g> </svg>
