<?xml version="1.0" encoding="iso-8859-1"?>
<!-- Generator: Adobe Illustrator 19.0.0, SVG Export Plug-In . SVG Version: 6.00 Build 0)  -->
<svg version="1.1" id="Capa_1" xmlns="http://www.w3.org/2000/svg" xmlns:xlink="http://www.w3.org/1999/xlink" x="0px" y="0px"
	 viewBox="0 0 512 512" style="enable-background:new 0 0 512 512;" xml:space="preserve">
<path style="fill:#53433F;" d="M392,15v61c0,8.401-6.599,15-15,15s-15-6.599-15-15V30H150v46c0,8.401-6.599,15-15,15
	s-15-6.599-15-15V15c0-8.401,6.599-15,15-15h242C385.401,0,392,6.599,392,15z"/>
<path style="fill:#3E322E;" d="M362,30H256V0h121c8.401,0,15,6.599,15,15v61c0,8.401-6.599,15-15,15s-15-6.599-15-15V30z"/>
<path style="fill:#68544F;" d="M105,512H45c-8.291,0-15-6.709-15-15v-61c0-8.291,6.709-15,15-15h60c8.291,0,15,6.709,15,15v61
	C120,505.291,113.291,512,105,512z"/>
<path style="fill:#53433F;" d="M467,512h-60c-8.291,0-15-6.709-15-15v-61c0-8.291,6.709-15,15-15h60c8.291,0,15,6.709,15,15v61
	C482,505.291,475.291,512,467,512z"/>
<path style="fill:#FF9100;" d="M332,61v150H61.5L0,181v-75c0-24.901,20.099-45,45-45H332z"/>
<path style="fill:#FF4B00;" d="M512,181v-75c0-24.814-20.186-45-45-45H332l-30,37.5v75l30,37.5h135.692L512,181z"/>
<rect x="256" y="61" style="fill:#FF7816;" width="76" height="150"/>
<path style="fill:#53433F;" d="M271,136c0,8.401-6.599,15-15,15H75c-8.401,0-15-6.599-15-15s6.599-15,15-15h181
	C264.401,121,271,127.599,271,136z"/>
<g>
	<circle style="fill:#3E322E;" cx="437" cy="136" r="15"/>
	<circle style="fill:#3E322E;" cx="377" cy="136" r="15"/>
	<path style="fill:#3E322E;" d="M256,151v-30c8.401,0,15,6.599,15,15S264.401,151,256,151z"/>
</g>
<path style="fill:#53433F;" d="M0,181v225c0,24.901,20.099,45,45,45h422c24.901,0,45-20.099,45-45V181H0z"/>
<path style="fill:#3E322E;" d="M512,181v225c0,24.901-20.099,45-45,45H256V181H512z"/>
<g>
	<path style="fill:#C5D3DD;" d="M135,271H75c-8.291,0-15-6.709-15-15s6.709-15,15-15h60c8.291,0,15,6.709,15,15
		C150,264.291,143.291,271,135,271z"/>
	<path style="fill:#C5D3DD;" d="M332,316c0,8.401-6.599,15-15,15H75c-8.401,0-15-6.599-15-15s6.599-15,15-15h242
		C325.401,301,332,307.599,332,316z"/>
	<path style="fill:#C5D3DD;" d="M135,391H75c-8.291,0-15-6.709-15-15s6.709-15,15-15h60c8.291,0,15,6.709,15,15S143.291,391,135,391
		z"/>
	<path style="fill:#C5D3DD;" d="M452,256c0,8.401-6.599,15-15,15H195c-8.401,0-15-6.599-15-15s6.599-15,15-15h242
		C445.401,241,452,247.599,452,256z"/>
</g>
<path style="fill:#B6C4CF;" d="M437,331h-60c-8.291,0-15-6.709-15-15s6.709-15,15-15h60c8.291,0,15,6.709,15,15S445.291,331,437,331
	z"/>
<path style="fill:#C5D3DD;" d="M452,376c0,8.401-6.599,15-15,15H195c-8.401,0-15-6.599-15-15s6.599-15,15-15h242
	C445.401,361,452,367.599,452,376z"/>
<g>
	<path style="fill:#B6C4CF;" d="M317,331h-61v-30h61c8.401,0,15,6.599,15,15S325.401,331,317,331z"/>
	<path style="fill:#B6C4CF;" d="M452,376c0,8.401-6.599,15-15,15H256v-30h181C445.401,361,452,367.599,452,376z"/>
	<path style="fill:#B6C4CF;" d="M437,271H256v-30h181c8.401,0,15,6.599,15,15S445.401,271,437,271z"/>
</g>
<g>
</g>
<g>
</g>
<g>
</g>
<g>
</g>
<g>
</g>
<g>
</g>
<g>
</g>
<g>
</g>
<g>
</g>
<g>
</g>
<g>
</g>
<g>
</g>
<g>
</g>
<g>
</g>
<g>
</g>
</svg>
