<svg height="512pt" viewBox="-10 0 512 512.00005" width="512pt" xmlns="http://www.w3.org/2000/svg"><path d="m289.019531 485.621094h35.734375v26.378906h-35.734375zm0 0" fill="#6770e6"/><path d="m354.710938 195.542969c0 97.949219-79.402344 177.355469-177.355469 177.355469-97.949219 0-177.355469-79.40625-177.355469-177.355469 0-97.953125 79.40625-177.355469 177.355469-177.355469 97.953125 0 177.355469 79.402344 177.355469 177.355469zm0 0" fill="#69ebfc"/><path d="m85.71875 317.382812h183.273438c5.144531 0 10.144531-1.847656 13.957031-5.304687 23.828125-21.621094 41.023437-50.433594 48.121093-82.976563h-307.429687c7.097656 32.542969 24.292969 61.355469 48.125 82.976563 3.804687 3.460937 8.808594 5.304687 13.953125 5.304687zm0 0" fill="#e0734a"/><path d="m283.835938 337.382812h-212.960938s-60.328125 45.984376-69.667969 127.089844c-1.2968748 11.253906 7.453125 21.148438 18.777344 21.148438h334.726563c0-94.21875-70.875-148.238282-70.875-148.238282zm0 0" fill="#6770e6"/><path d="m29.960938 485.621094h35.730468v26.378906h-35.730468zm0 0" fill="#6770e6"/><g fill="#5861c7"><path d="m29.960938 498h35.730468v14h-35.730468zm0 0"/><path d="m289.019531 498h35.734375v14h-35.734375zm0 0"/><path d="m19.992188 485.621094h334.71875c0-18.628906-2.796876-35.660156-7.246094-51.042969h-340.21875c-2.71875 9.40625-4.820313 19.425781-6.046875 30.050781-1.2890628 11.1875 7.53125 20.992188 18.792969 20.992188zm0 0"/><path d="m231.699219 434.578125h-108.6875v-27.542969c0-30.011718 24.332031-54.339844 54.34375-54.339844s54.339843 24.328126 54.339843 54.339844v27.542969zm0 0"/></g><path d="m205.644531 408.898438c0 15.621093-12.664062 28.289062-28.289062 28.289062-15.621094 0-28.289063-12.667969-28.289063-28.289062 0-15.625 12.667969-28.289063 28.289063-28.289063 15.625 0 28.289062 12.664063 28.289062 28.289063zm0 0" fill="#ff8354"/><path d="m113.777344 29.851562h127.15625v101.839844h-127.15625zm0 0" fill="#6770e6"/><path d="m281.152344 29.851562c-30.085938-18.890624-65.652344-29.851562-103.796875-29.851562s-73.710938 10.960938-103.796875 29.851562zm0 0" fill="#6770e6"/><path d="m177.363281 6c33.890625.023438 65.734375 8.710938 93.507813 23.90625l10.273437.007812c-30.074219-18.902343-65.632812-29.8906245-103.777343-29.914062-38.144532-.0234375-73.71875 10.917969-103.816407 29.785156l10.269531.003906c27.796876-15.160156 59.648438-23.8125 93.542969-23.789062zm0 0" fill="#8f95e6"/><path d="m73.558594 53.167969h-47.082032c-4.296874 0-7.125 4.484375-5.269531 8.363281l13.605469 28.472656zm0 0" fill="#69ebfc"/><path d="m412.261719 353.964844c39.261719-37.574219 78.757812-114.265625 78.757812-189.128906 0-70.492188-40.804687-131.695313-42.542969-134.269532-3.632812-5.375-9.699218-8.597656-16.1875-8.597656h-362.550781c-8.695312 0-16.945312 3.855469-22.519531 10.535156l-17.257812 20.667969h253.136718c43.453125 32.324219 71.613282 84.050781 71.613282 142.371094 0 57.996093-27.84375 109.484375-70.886719 141.84375h.011719s70.875 54.019531 70.875 148.238281h92.335937c7.191406 0 12.164063-7.191406 9.625-13.921875zm-27.175781-28.082032-.1875-.183593-.203126.566406s-16.042968 21.632813-34.882812 4.015625c-11.007812-10.296875-9.148438-22.148438-5.703125-30.226562 1.960937-3.121094 3.855469-6.285157 5.644531-9.515626.035156-.050781.058594-.074218.058594-.074218l-.011719-.011719c15.566407-28.167969 24.453125-60.515625 24.453125-94.910156 0-28.058594-5.882812-55.199219-16.96875-80.082031 28.980469-8.507813 35.0625-35.496094 35.550782-54.414063h28.480468c9.949219 17.417969 30.621094 59.011719 30.621094 103.785156 0 61.039063-33.921875 129.652344-66.851562 161.050781zm0 0" fill="#5861c7"/><path d="m47.21875 42.5c5.574219-6.675781 13.824219-10.535156 22.519531-10.535156h362.550781c6.492188 0 12.558594 3.222656 16.1875 8.601562 1.699219 2.511719 40.6875 61.03125 42.457032 129.484375.042968-1.742187.085937-3.480469.085937-5.21875 0-70.488281-40.804687-131.695312-42.542969-134.265625-3.632812-5.378906-9.699218-8.601562-16.1875-8.601562h-362.550781c-8.695312 0-16.945312 3.859375-22.519531 10.535156l-17.257812 20.667969h8.347656zm0 0" fill="#6770e6"/><path d="m163.214844 131.691406h28.277344v171.328125h-28.277344zm0 0" fill="#a1f1fc"/><path d="m163.214844 229.101562h28.277344v73.917969h-28.277344zm0 0" fill="#ffac8c"/></svg>