<svg height="512" viewBox="0 0 64 64" width="512" xmlns="http://www.w3.org/2000/svg"><g id="Graphic_Tablet-2" data-name="Graphic Tablet"><path d="m57 32h4v21h-4z" fill="#ffde55"/><path d="m61 19v13h-4v-13a2.006 2.006 0 0 1 2-2 2.015 2.015 0 0 1 2 2z" fill="#a78966"/><path d="m61 53-2 8-2-8z" fill="#a78966"/><path d="m53 27v32a2.006 2.006 0 0 1 -2 2h-46a2.006 2.006 0 0 1 -2-2v-32z" fill="#c6c5ca"/><path d="m53 19v8h-50v-8a2.006 2.006 0 0 1 2-2h46a2.006 2.006 0 0 1 2 2zm-4 5v-4h-42v4z" fill="#898890"/><path d="m28 20h21v4h-21z" fill="#46f8ff"/><path d="m7 20h21v4h-21z" fill="#46f8ff"/><path d="m59 16a3 3 0 0 0 -3 3v34a1 1 0 0 0 .03.243l2 8a1 1 0 0 0 1.94 0l2-8a1 1 0 0 0 .03-.243v-34a3 3 0 0 0 -3-3zm0 2a1 1 0 0 1 1 1v12h-2v-12a1 1 0 0 1 1-1zm-1 34v-19h2v19zm1 4.877-.719-2.877h1.438z"/><path d="m5 30v4h2v-3h3v-2h-4a1 1 0 0 0 -1 1z"/><path d="m50 29h-4v2h3v3h2v-4a1 1 0 0 0 -1-1z"/><path d="m49 57h-3v2h4a1 1 0 0 0 1-1v-4h-2z"/><path d="m7 54h-2v4a1 1 0 0 0 1 1h4v-2h-3z"/><path d="m51 16h-22v-1a5.006 5.006 0 0 0 -5-5h-17a3 3 0 0 1 0-6h44v-2h-44a5 5 0 0 0 0 10h17a3 3 0 0 1 3 3v1h-22a3 3 0 0 0 -3 3v40a3 3 0 0 0 3 3h46a3 3 0 0 0 3-3v-40a3 3 0 0 0 -3-3zm-46 2h46a1 1 0 0 1 1 1v7h-48v-7a1 1 0 0 1 1-1zm46 42h-46a1 1 0 0 1 -1-1v-31h48v31a1 1 0 0 1 -1 1z"/><path d="m7 25h42a1 1 0 0 0 1-1v-4a1 1 0 0 0 -1-1h-42a1 1 0 0 0 -1 1v4a1 1 0 0 0 1 1zm41-2h-19v-2h19zm-40-2h19v2h-19z"/></g></svg>