<?xml version="1.0" encoding="iso-8859-1"?>
<!-- Generator: Adobe Illustrator 19.0.0, SVG Export Plug-In . SVG Version: 6.00 Build 0)  -->
<svg version="1.1" id="Layer_1" xmlns="http://www.w3.org/2000/svg" xmlns:xlink="http://www.w3.org/1999/xlink" x="0px" y="0px"
	 viewBox="0 0 496.4 496.4" style="enable-background:new 0 0 496.4 496.4;" xml:space="preserve">
<g>
	<path style="fill:#2F423F;" d="M100.8,426.8c0,25.6,20.8,45.6,47.2,45.6h135.2c6.4,0,11.2-5.6,11.2-12s-4.8-12-11.2-12H148
		c-13.6,0-24-8.8-24-22.4s11.2-23.2,24-23.2c6.4,0,11.2-4.8,11.2-11.2c0-6.4-4.8-12-11.2-12C121.6,380.4,100.8,400.4,100.8,426.8z"
		/>
	<path style="fill:#2F423F;" d="M431.2,496.4h23.2c-1.6-24-21.6-48-47.2-48H272c-6.4,0-11.2,5.6-11.2,12s4.8,12,11.2,12h135.2
		C419.2,472.4,429.6,488.4,431.2,496.4z"/>
</g>
<path style="fill:#32BA7C;" d="M232,231.6c-52.8,52.8-139.2,52.8-192,0s-52.8-139.2,0-192s139.2-52.8,192,0
	C284.8,93.2,284.8,178.8,232,231.6z"/>
<path style="fill:#0AA06E;" d="M232,39.6c52.8,52.8,52.8,139.2,0,192s-139.2,52.8-192,0"/>
<path style="fill:#FFC114;" d="M194.4,77.2c32.8,32.8,32.8,84.8,0,117.6s-85.6,32.8-117.6,0C44,162,44,110,76.8,77.2
	S162.4,44.4,194.4,77.2z"/>
<path style="fill:#FCA12A;" d="M76.8,77.2c32.8-32.8,85.6-32.8,117.6,0c32.8,32.8,32.8,84.8,0,117.6"/>
<path style="fill:#F15249;" d="M175.2,175.6c-21.6,21.6-57.6,21.6-79.2,0S74.4,118,96,96.4s57.6-21.6,79.2,0
	C197.6,118,197.6,153.2,175.2,175.6z"/>
<path style="fill:#D82E2E;" d="M175.2,96.4c21.6,21.6,21.6,57.6,0,79.2s-57.6,21.6-79.2,0"/>
<g>
	<path style="fill:#0AA06E;" d="M184,360.4c0,26.4-21.6,48-48,48l0,0c-26.4,0-48-21.6-48-48v-96c0-26.4,21.6-40.8,48-40.8l0,0
		c26.4,0,48,14.4,48,40.8V360.4z"/>
	<rect x="256" y="72.4" style="fill:#0AA06E;" width="72" height="128"/>
</g>
<g>
	<path style="fill:#32BA7C;" d="M159.2,296.4c0,4-3.2,8-7.2,8h-32.8c-4,0-7.2-4-7.2-8l0,0c0-4,3.2-8,7.2-8H152
		C156,288.4,159.2,292.4,159.2,296.4L159.2,296.4z"/>
	<path style="fill:#32BA7C;" d="M159.2,328.4c0,4-3.2,8-7.2,8h-32.8c-4,0-7.2-4-7.2-8l0,0c0-4,3.2-8,7.2-8H152
		C156,320.4,159.2,324.4,159.2,328.4L159.2,328.4z"/>
	<path style="fill:#32BA7C;" d="M160,361.2c0,4-3.2,7.2-7.2,7.2h-33.6c-4,0-7.2-3.2-7.2-7.2v-1.6c0-4,3.2-7.2,7.2-7.2h33.6
		c4,0,7.2,3.2,7.2,7.2V361.2z"/>
	<polygon style="fill:#32BA7C;" points="376,222.8 320,198.8 320,73.2 376,49.2 	"/>
</g>
<g>
	<path style="fill:#FFC114;" d="M408.8,144.4c-4.8,0-8.8-3.2-8.8-8l0,0c0-4.8,4-8,8.8-8h78.4c4.8,0,8.8,3.2,8.8,8l0,0
		c0,4.8-4,8-8.8,8H408.8z"/>
	<path style="fill:#FFC114;" d="M396.8,190c-4.8-1.6-7.2-7.2-5.6-12l0,0c1.6-4.8,7.2-7.2,12-5.6l73.6,28c4.8,1.6,7.2,7.2,5.6,12l0,0
		c-1.6,4.8-7.2,7.2-12,5.6L396.8,190z"/>
	<path style="fill:#FFC114;" d="M396.8,81.2c-4.8,1.6-7.2,7.2-5.6,12l0,0c1.6,4.8,7.2,7.2,12,5.6l73.6-28c4.8-1.6,7.2-7.2,5.6-12
		l0,0c-1.6-4.8-7.2-7.2-12-5.6L396.8,81.2z"/>
</g>
<g>
</g>
<g>
</g>
<g>
</g>
<g>
</g>
<g>
</g>
<g>
</g>
<g>
</g>
<g>
</g>
<g>
</g>
<g>
</g>
<g>
</g>
<g>
</g>
<g>
</g>
<g>
</g>
<g>
</g>
</svg>
