<?xml version="1.0" encoding="iso-8859-1"?>
<!-- Generator: Adobe Illustrator 19.0.0, SVG Export Plug-In . SVG Version: 6.00 Build 0)  -->
<svg version="1.1" id="Capa_1" xmlns="http://www.w3.org/2000/svg" xmlns:xlink="http://www.w3.org/1999/xlink" x="0px" y="0px"
	 viewBox="0 0 512 512" style="enable-background:new 0 0 512 512;" xml:space="preserve">
<circle style="fill:#00E9F3;" cx="256" cy="256" r="256"/>
<path style="fill:#00B8C0;" d="M512,256c0-17.9-1.844-35.368-5.34-52.232l-84.956-85.356c-3.163-3.901-7.978-6.412-13.362-6.412
	H103.658c-9.476,0-17.229,7.753-17.229,17.229v210.895c0,4.939,2.118,9.397,5.477,12.547h-32.63v30.22l116.158,116.158
	C200.768,507.443,227.85,512,256,512C397.385,512,512,397.385,512,256z"/>
<path style="fill:#FFB844;" d="M408.342,357.353H103.658c-9.476,0-17.229-7.753-17.229-17.229V129.229
	c0-9.476,7.753-17.229,17.229-17.229h304.684c9.476,0,17.229,7.753,17.229,17.229v210.895
	C425.572,349.6,417.818,357.353,408.342,357.353z"/>
<path style="fill:#FF7600;" d="M425.57,129.23v210.89c0,4.94-2.1,9.41-5.46,12.55c-3.08,2.9-7.23,4.68-11.77,4.68H256V112h152.34
	C417.82,112,425.57,119.75,425.57,129.23z"/>
<rect x="107.84" y="131.68" style="fill:#FFFFFF;" width="296.33" height="200.65"/>
<rect x="256" y="131.68" style="fill:#FFED93;" width="148.16" height="200.65"/>
<path style="fill:#FF328E;" d="M210.383,248.563h91.231c6.037,11.838,18.335,19.95,32.535,19.95c14.687,0,27.34-8.676,33.134-21.179
	h-25.417l-15.993-15.33l15.993-15.33h25.417c-5.795-12.503-18.448-21.179-33.134-21.179c-14.2,0-26.497,8.112-32.535,19.95h-91.231
	c-6.038-11.838-18.335-19.95-32.535-19.95c-14.687,0-27.34,8.676-33.134,21.179h25.417l15.993,15.33l-15.993,15.33h-25.417
	c5.795,12.503,18.448,21.179,33.135,21.179C192.048,268.513,204.346,260.401,210.383,248.563z"/>
<path style="fill:#9330B2;" d="M341.87,247.33h25.41c-5.79,12.51-18.44,21.18-33.13,21.18c-14.2,0-26.5-8.11-32.54-19.95H256v-33.12
	h45.61c6.04-11.83,18.34-19.95,32.54-19.95c14.69,0,27.34,8.68,33.13,21.18h-25.41l-16,15.33L341.87,247.33z"/>
<rect x="59.27" y="352.67" style="fill:#FFFFFF;" width="390.77" height="30.22"/>
<rect x="256" y="352.67" style="fill:#FFED93;" width="194.04" height="30.22"/>
<polygon style="fill:#FFE767;" points="182.667,352.67 193.333,367.78 318.667,367.78 329.333,352.67 "/>
<polygon style="fill:#FFD500;" points="329.33,352.669 327.92,354.669 324.62,359.349 318.67,367.779 256,367.779 256,352.669 "/>
<g>
</g>
<g>
</g>
<g>
</g>
<g>
</g>
<g>
</g>
<g>
</g>
<g>
</g>
<g>
</g>
<g>
</g>
<g>
</g>
<g>
</g>
<g>
</g>
<g>
</g>
<g>
</g>
<g>
</g>
</svg>
