<?xml version="1.0" encoding="iso-8859-1"?>
<!-- Generator: Adobe Illustrator 19.0.0, SVG Export Plug-In . SVG Version: 6.00 Build 0)  -->
<svg version="1.1" id="Layer_1" xmlns="http://www.w3.org/2000/svg" xmlns:xlink="http://www.w3.org/1999/xlink" x="0px" y="0px"
	 viewBox="0 0 512 512" style="enable-background:new 0 0 512 512;" xml:space="preserve">
<rect x="12.672" y="402.67" style="fill:#FFCE54;" width="152" height="55.34"/>
<polygon style="fill:#48CFAD;" points="485.328,230.672 339.328,230.672 277.344,237.328 256.672,261.344 214.672,421.344 
	214.672,448.672 249.328,451.328 469.344,454.672 504.672,440 504.672,278 "/>
<polygon style="fill:#F5F7FA;" points="479,230.5 396,228 396,273.5 500,276.5 504.672,261.344 "/>
<path style="fill:#656D78;" d="M338,303c0,9.938-8.062,18-18,18s-18-8.062-18-18s8.062-18,18-18S338,293.062,338,303z"/>
<polygon style="fill:#CCD1D9;" points="237.344,340 117.344,340 117.344,252.25 264.5,252.25 "/>
<rect x="153.75" y="110.34" style="fill:#AAB2BC;" width="78.67" height="133.33"/>
<rect x="117.34" y="48" style="fill:#CCD1D9;" width="278.66" height="53.34"/>
<path d="M0,450.656c0,0,8.859,24,36,24c10.562,0,98.797,0,109.344,0c27.141,0,36-24,36-24v-61.312H0V450.656z M21.344,410.656H160
	v34.828c-0.531,0.797-1.234,1.734-2.062,2.609c-3.344,3.578-7.344,5.25-12.594,5.25H36c-4.891,0-8.672-1.438-11.875-4.531
	c-1.188-1.125-2.109-2.312-2.781-3.328V410.656z"/>
<path d="M469.344,218.656H298.672c-16,0-32.266,8.656-42.875,21.344h-21.125v-85.344L241.781,112h152.891
	c5.891,0,10.672-4.781,10.672-10.656V48h-160c0-5.891-4.781-10.656-10.672-10.656h-85.328c-5.891,0-10.672,4.766-10.672,10.656h-32
	v53.344c0,5.875,4.781,10.656,10.672,10.656h24.891l7.109,42.656V240H128c0-5.891-4.766-10.656-10.656-10.656
	S106.672,234.11,106.672,240v106.656c0,5.906,4.781,10.688,10.672,10.688S128,352.562,128,346.656h94.625l-19.844,76.062
	C196.859,445.422,211.203,464,234.672,464c0,5.891,4.781,10.656,10.672,10.656S256,469.891,256,464h202.672
	c0,5.891,4.781,10.656,10.672,10.656S480,469.891,480,464c0-0.453-0.031-0.906-0.078-1.344c18.391-4.719,32.078-21.5,32.078-41.312
	v-160C512,237.875,492.812,218.656,469.344,218.656z M458.109,240h11.234c5.656,0,11,2.234,15.047,6.281
	c4.047,4.062,6.281,9.406,6.281,15.062h-32.562h-31.438h-21.328V240h21.328H458.109z M128,90.656V69.344h256v21.312H245.344H138.672
	C138.672,90.656,128,90.656,128,90.656z M170.391,151.156L163.859,112h56.297l-6.531,39.156l-0.281,1.75v1.75V240h-42.672v-85.344
	v-1.75L170.391,151.156z M128,304c5.906,0,10.672-4.781,10.672-10.656c0-5.906-4.766-10.688-10.672-10.688
	c5.906,0,10.672-4.766,10.672-10.656s-4.766-10.656-10.672-10.656h21.344l0,0v64H128c5.906,0,10.672-4.781,10.672-10.688
	C138.672,308.781,133.906,304,128,304z M170.672,325.344v-64h64l0,0h10.203l-16.688,64H170.672z M484.391,436.375
	c-4.047,4.062-9.391,6.281-15.047,6.281H234.672c-4.594,0-8.172-1.344-10.078-3.828c-1.922-2.484-2.328-6.281-1.172-10.734
	l42.453-162.75C269.344,252.078,284.969,240,298.672,240H384v42.656h10.672h10.672h85.328v138.688
	C490.672,426.984,488.438,432.328,484.391,436.375z"/>
<path d="M352,293.344c-0.594,0-1.188,0.062-1.766,0.156c-0.406-1.188-0.875-2.344-1.422-3.438c0.484-0.344,0.938-0.719,1.359-1.156
	c4.172-4.156,4.172-10.906,0-15.078c-4.156-4.172-10.906-4.172-15.078,0c-0.422,0.422-0.797,0.891-1.141,1.359
	c-1.109-0.531-2.266-1-3.438-1.406c0.094-0.594,0.156-1.172,0.156-1.781c0-5.891-4.766-10.656-10.672-10.656
	c-5.875,0-10.656,4.766-10.656,10.656c0,0.609,0.062,1.188,0.156,1.781c-1.172,0.406-2.328,0.875-3.438,1.406
	c-0.344-0.469-0.719-0.938-1.141-1.359c-4.172-4.172-10.922-4.172-15.078,0c-4.172,4.172-4.172,10.922,0,15.078
	c0.422,0.438,0.875,0.812,1.359,1.156c-0.547,1.094-1.016,2.25-1.422,3.438c-0.578-0.094-1.172-0.156-1.781-0.156
	c-5.875,0-10.656,4.766-10.656,10.656s4.781,10.656,10.656,10.656c0.609,0,1.203-0.062,1.781-0.156
	c0.406,1.188,0.875,2.344,1.422,3.438c-0.484,0.344-0.938,0.719-1.359,1.156c-4.172,4.156-4.172,10.906,0,15.078
	c4.156,4.172,10.906,4.172,15.078,0c0.422-0.422,0.797-0.891,1.141-1.359c1.109,0.531,2.266,1,3.438,1.406
	c-0.094,0.594-0.156,1.172-0.156,1.781c0,5.891,4.781,10.656,10.656,10.656c5.906,0,10.672-4.766,10.672-10.656
	c0-0.609-0.062-1.188-0.156-1.781c1.172-0.406,2.328-0.875,3.438-1.406c0.344,0.469,0.719,0.938,1.141,1.359
	c4.172,4.172,10.922,4.172,15.078,0c4.172-4.172,4.172-10.922,0-15.078c-0.422-0.438-0.875-0.812-1.359-1.156
	c0.547-1.094,1.016-2.25,1.422-3.438c0.578,0.094,1.172,0.156,1.766,0.156c5.906,0,10.672-4.766,10.672-10.656
	S357.906,293.344,352,293.344z M320,314.656c-5.875,0-10.656-4.781-10.656-10.656s4.781-10.656,10.656-10.656
	c5.891,0,10.672,4.781,10.672,10.656S325.891,314.656,320,314.656z"/>
<path d="M416,250.656c0,5.906,4.781,10.688,10.672,10.688s10.672-4.781,10.672-10.688c0-5.875-4.781-10.656-10.672-10.656
	S416,244.781,416,250.656z"/>
<path d="M447.438,250.656c0,5.906,4.781,10.688,10.672,10.688s10.656-4.781,10.656-10.688c0-5.875-4.766-10.656-10.656-10.656
	S447.438,244.781,447.438,250.656z"/>
<path d="M458.672,400h-64c-5.891,0-10.672,4.781-10.672,10.656c0,5.906,4.781,10.688,10.672,10.688h64
	c5.891,0,10.672-4.781,10.672-10.688C469.344,404.781,464.562,400,458.672,400z"/>
<g>
</g>
<g>
</g>
<g>
</g>
<g>
</g>
<g>
</g>
<g>
</g>
<g>
</g>
<g>
</g>
<g>
</g>
<g>
</g>
<g>
</g>
<g>
</g>
<g>
</g>
<g>
</g>
<g>
</g>
</svg>
