<svg height="512pt" viewBox="0 0 512.00032 512" width="512pt" xmlns="http://www.w3.org/2000/svg"><path d="m335.378906 54.011719v402.976562c0 21.75-17.640625 39.390625-39.390625 39.390625h-241.976562c-21.75 0-39.390625-17.640625-39.390625-39.390625v-402.976562c0-21.75 17.640625-39.390625 39.390625-39.390625h241.976562c21.75 0 39.390625 17.640625 39.390625 39.390625zm0 0" fill="#fff5ea"/><path d="m335.378906 54.011719v402.976562c0 21.75-17.640625 39.390625-39.390625 39.390625h-120.988281v-481.757812h120.988281c21.75 0 39.390625 17.640625 39.390625 39.390625zm0 0" fill="#f2e1df"/><path d="m293.390625 0h-236.78125c-31.210937 0-56.609375 25.398438-56.609375 56.609375v398.78125c0 31.210937 25.398438 56.609375 56.609375 56.609375h236.78125c31.210937 0 56.609375-25.398438 56.609375-56.609375v-398.78125c0-31.210937-25.398438-56.609375-56.609375-56.609375zm26.609375 455.390625c0 14.667969-11.941406 26.609375-26.609375 26.609375h-236.78125c-14.667969 0-26.609375-11.941406-26.609375-26.609375v-398.78125c0-14.667969 11.941406-26.609375 26.609375-26.609375h38.601563c0 18.851562 15.339843 34.179688 34.1875 34.179688h91.210937c18.839844 0 34.179687-15.328126 34.179687-34.179688h38.601563c14.667969 0 26.609375 11.941406 26.609375 26.609375zm0 0" fill="#0085a9"/><path d="m230 447.5c0 8.28125-6.71875 15-15 15h-80c-8.28125 0-15-6.71875-15-15 0-8.289062 6.71875-15 15-15h80c8.28125 0 15 6.710938 15 15zm0 0" fill="#0085a9"/><path d="m215 462.5h-40v-30h40c8.28125 0 15 6.710938 15 15 0 8.28125-6.71875 15-15 15zm0 0" fill="#00608d"/><path d="m350 56.609375v398.78125c0 31.210937-25.398438 56.609375-56.609375 56.609375h-118.390625v-30h118.390625c14.667969 0 26.609375-11.941406 26.609375-26.609375v-398.78125c0-14.667969-11.941406-26.609375-26.609375-26.609375h-38.601563c0 18.851562-15.339843 34.179688-34.179687 34.179688h-45.609375v-64.179688h118.390625c31.210937 0 56.609375 25.398438 56.609375 56.609375zm0 0" fill="#00608d"/><path d="m508.6875 121.859375-21.449219 27.992187-.328125 167.449219c.039063.007813.078125.019531.117188.03125l-38.566406 30.046875-39.070313-29.9375v-.042968l.289063-167.566407-21.410157-27.941406c-3.261719-4.25-4.191406-9.820313-2.480469-14.902344l32.101563-96.007812c2.199219-6.570313 8.328125-10.9687502 15.238281-10.9687502h15.332032l15.519531-.0117188c6.949219 0 13.078125 4.429688 15.257812 11.019531l31.941407 96c1.679687 5.070313.75 10.621094-2.492188 14.839844zm0 0" fill="#fff5ea"/><path d="m508.6875 121.859375-21.449219 27.992187-.328125 167.449219c.039063.007813.078125.019531.117188.03125l-38.566406 30.046875v-347.3671872l15.519531-.0117188c6.949219 0 13.078125 4.429688 15.257812 11.019531l31.941407 96c1.679687 5.070313.75 10.621094-2.492188 14.839844zm0 0" fill="#f2e1df"/><path d="m511.6875 347.769531-.027344 101.011719c-.011718 17.027344-6.671875 33-18.78125 44.96875-11.917968 11.769531-27.667968 18.238281-44.417968 18.25h-.78125c-34.441407-.398438-62.460938-29.070312-62.449219-63.917969l.027343-100.332031c0-14.738281 10.332032-27.128906 24.132813-30.308594v-.042968l39.070313-.039063 38.566406-.027344c5.851562 1.21875 11.230468 4.117188 15.550781 8.4375 5.882813 5.878907 9.109375 13.691407 9.109375 22zm0 0" fill="#ffc837"/><path d="m511.6875 347.769531-.027344 101.011719c-.011718 17.027344-6.671875 33-18.78125 44.96875-11.917968 11.769531-27.667968 18.238281-44.417968 18.25v-194.640625l38.566406-.027344c5.851562 1.21875 11.230468 4.117188 15.550781 8.4375 5.882813 5.878907 9.109375 13.691407 9.109375 22zm0 0" fill="#fbb13e"/><path d="m175 128.269531c-67.109375 0-121.699219 54.640625-121.699219 121.800781 0 67.167969 54.589844 121.808594 121.699219 121.808594s121.699219-54.640625 121.699219-121.808594c0-67.160156-54.589844-121.800781-121.699219-121.800781zm0 0" fill="#d8ec3e"/><path d="m296.699219 250.070312c0 67.167969-54.589844 121.808594-121.699219 121.808594v-243.609375c67.109375 0 121.699219 54.640625 121.699219 121.800781zm0 0" fill="#d4d043"/><path d="m232.039062 229.5-57.039062 57.101562-2.328125 2.328126c-4.722656 4.71875-10.992187 7.320312-17.660156 7.320312h-.011719c-6.671875 0-12.941406-2.601562-17.648438-7.308594l-19.390624-19.390625c-5.859376-5.859375-5.859376-15.351562 0-21.210937 5.859374-5.859375 15.359374-5.859375 21.210937 0l15.828125 15.832031 20-20.023437 35.820312-35.847657c5.859376-5.859375 15.351563-5.871093 21.210938-.011719 5.859375 5.851563 5.867188 15.351563.007812 21.210938zm0 0" fill="#fff"/><path d="m232.039062 229.5-57.039062 57.101562v-42.453124l35.820312-35.847657c5.859376-5.859375 15.351563-5.871093 21.210938-.011719 5.859375 5.851563 5.867188 15.351563.007812 21.210938zm0 0" fill="#fff5ea"/></svg>