<svg id="Layer_3" enable-background="new 0 0 64 64" height="512" viewBox="0 0 64 64" width="512" xmlns="http://www.w3.org/2000/svg"><path d="m34 62h-28c-2.209 0-4-1.791-4-4v-36c0-2.209 1.791-4 4-4h28c2.209 0 4 1.791 4 4v36c0 2.209-1.791 4-4 4z" fill="#aab2bd"/><path d="m6 18h28v4h-28z" fill="#e6e9ed"/><path d="m6 22v12 12 11c0 .55.45 1 1 1h26c.55 0 1-.45 1-1v-35z" fill="#ffeaa7"/><path d="m10 50h8v4h-8z" fill="#ff826e"/><path d="m10 26h8v4h-8z" fill="#ff826e"/><path d="m55 28c3.87 0 7 3.13 7 7s-3.13 7-7 7-7-3.13-7-7c0-.89.17-1.74.48-2.52l-6.48-6.48 4-4 6.48 6.48c.78-.31 1.63-.48 2.52-.48zm3 7c0-1.66-1.34-3-3-3s-3 1.34-3 3 1.34 3 3 3 3-1.34 3-3z" fill="#fcd770"/><path d="m58 10 3.74-3.74c.22.72.31 1.5.23 2.32-.27 2.81-2.58 5.12-5.39 5.39-.02 0-.04.01-.06.01-1.68.14-3.27.77-4.46 1.96l-6.06 6.06-4 4-4 4-2.06 2.06c-1.16 1.16-1.78 2.69-1.94 4.32-.01.05-.02.09-.02.14 0 .02-.01.04-.01.06-.27 2.81-2.58 5.12-5.39 5.39-.82.08-1.6-.01-2.32-.23l3.74-3.74-1-3-3-1-3.74 3.74c-.22-.72-.31-1.5-.23-2.32.05-.49.16-.97.32-1.42.78-2.14 2.75-3.75 5.07-3.97.02 0 .04-.01.06-.01 1.68-.14 3.27-.77 4.46-1.96l2.06-2.06 4-4 4-4 6.06-6.06c1.19-1.19 1.82-2.78 1.96-4.46 0-.02.01-.04.01-.06.27-2.81 2.58-5.12 5.39-5.39.82-.08 1.6.01 2.32.23l-3.74 3.74 1 3z" fill="#b4dd7f"/><path d="m42 18-4 4-4-4-2.06-2.06c-1.11-1.11-2.57-1.79-4.13-1.93l-.18-.02c-2.62-.24-4.9-2.07-5.48-4.64-.24-1.09-.18-2.14.11-3.09l3.74 3.74 3-1 1-3-3.74-3.74c.95-.29 2-.35 3.09-.11 2.57.58 4.4 2.86 4.64 5.48l.02.18c.14 1.56.82 3.02 1.93 4.13z" fill="#fcd770"/><path d="m9 31h10v-6h-10zm2-4h6v2h-6z"/><path d="m29 25h2v2h-2z"/><path d="m25 25h2v2h-2z"/><path d="m9 55h10v-6h-10zm2-4h6v2h-6z"/><path d="m29 49h2v2h-2z"/><path d="m29 53h2v2h-2z"/><path d="m25 53h2v2h-2z"/><path d="m25 49h2v2h-2z"/><path d="m9 37h2v2h-2z"/><path d="m9 41h2v2h-2z"/><path d="m13 41h2v2h-2z"/><path d="m13 37h2v2h-2z"/><path d="m55 27c-.764 0-1.52.11-2.256.329l-5.33-5.329 5.349-5.349c.964-.964 2.292-1.544 3.911-1.684 3.274-.313 5.98-3.02 6.294-6.294.088-.916-.003-1.826-.27-2.705l-.484-1.597-4.484 4.484-1.939-.646-.646-1.938 4.484-4.484-1.597-.484c-.876-.267-1.785-.357-2.705-.27-3.274.313-5.98 3.02-6.301 6.366-.132 1.547-.712 2.875-1.677 3.839l-5.349 5.348-5.349-5.349c-.942-.942-1.527-2.191-1.648-3.518l-.017-.185c-.281-3.091-2.51-5.706-5.419-6.359-1.213-.273-2.423-.231-3.599.126l-1.597.483 4.484 4.485-.646 1.938-1.939.648-4.484-4.484-.484 1.598c-.356 1.177-.398 2.387-.126 3.599.653 2.91 3.269 5.139 6.354 5.418l.188.019c1.327.12 2.576.705 3.519 1.647l.349.348h-25.586c-2.757 0-5 2.243-5 5v36c0 2.757 2.243 5 5 5h28c2.757 0 5-2.243 5-5v-27.586l3-3 5.329 5.329c-.219.736-.329 1.493-.329 2.257 0 4.411 3.589 8 8 8s8-3.589 8-8-3.589-8-8-8zm-6.237-14.349c1.302-1.302 2.083-3.06 2.261-5.134.224-2.338 2.156-4.271 4.493-4.495.017-.001.034-.003.051-.004l-2.711 2.711 1.354 4.062 4.061 1.354 2.711-2.712c-.001.017-.003.033-.005.05-.224 2.338-2.156 4.271-4.545 4.499-2.023.174-3.781.954-5.083 2.256l-16.113 16.111c-1.302 1.302-2.083 3.06-2.261 5.134-.224 2.338-2.156 4.271-4.493 4.495-.017.001-.034.003-.051.004l2.711-2.711-1.354-4.062-4.061-1.354-2.711 2.712c.001-.017.003-.033.005-.05.224-2.338 2.156-4.271 4.545-4.499 2.023-.174 3.781-.954 5.083-2.256zm-27.072 20.349h-14.691v-10h26v2.586l-1.763 1.763c-.964.964-2.292 1.544-3.911 1.684-2.453.234-4.587 1.813-5.635 3.967zm13.309-12.586 1.586 1.586-1.586 1.586zm-2 .586h-26v-2h26zm-26 26h26v10h-26zm26-2h-26v-10h14.094c-.016.11-.051.215-.062.326-.088.916.003 1.826.27 2.705l.484 1.597 4.484-4.483 1.939.646.646 1.938-4.484 4.484 1.597.484c.663.202 1.344.303 2.032.303.223 0 .448-.011.673-.032 1.673-.16 3.193-.951 4.327-2.128zm-5.095-31.987-.188-.019c-2.237-.202-4.124-1.792-4.589-3.865-.052-.232-.088-.465-.108-.696l2.711 2.712 4.061-1.354 1.354-4.062-2.711-2.711c.232.02.464.057.697.108 2.073.465 3.662 2.353 3.865 4.589l.014.185c.163 1.791.954 3.479 2.226 4.751l5.349 5.349-2.586 2.586-5.349-5.349c-1.272-1.272-2.96-2.063-4.746-2.224zm9.095 44.987c0 1.654-1.346 3-3 3h-28c-1.654 0-3-1.346-3-3v-36c0-1.302.839-2.402 2-2.816v37.816c0 1.103.897 2 2 2h26c1.103 0 2-.897 2-2v-20.554c.158-1.478.721-2.753 1.651-3.683l.349-.349zm18-17c-3.309 0-6-2.691-6-6 0-.734.138-1.462.409-2.162l.236-.607-6.231-6.231 2.586-2.586 6.23 6.23.607-.235c.701-.271 1.429-.409 2.163-.409 3.309 0 6 2.691 6 6s-2.691 6-6 6z"/><path d="m55 31c-2.206 0-4 1.794-4 4s1.794 4 4 4 4-1.794 4-4-1.794-4-4-4zm0 6c-1.103 0-2-.897-2-2s.897-2 2-2 2 .897 2 2-.897 2-2 2z"/></svg>