<svg height="512" viewBox="0 0 58 59" width="512" xmlns="http://www.w3.org/2000/svg"><g id="061---Computer-Repairs" fill="none"><path id="Rectangle-path" d="m20 46.939h18v9.122h-18z" fill="#3f5c6c"/><path id="Shape" d="m58 3v39l-58-1c0-36.993 46.6-39.53 56.46-39.94.9001875.21274176 1.5370476 1.01502006 1.54 1.94z" fill="#84b5cb"/><path id="Shape" d="m46 59h-34c-.5522847 0-1-.4477153-1-1 0-2.209139 1.790861-4 4-4h28c3.812 0 5.108 5 3 5z" fill="#547580"/><path id="Shape" d="m58 41v6c-.0032948 1.1032019-.8967981 1.9967052-2 2h-54c-1.10320187-.0032948-1.9967052-.8967981-2-2v-6z" fill="#547580"/><path id="Shape" d="m56.46 1.06c-9.86.41-56.46 4.28-56.46 39.94v-38c.0032948-1.10320187.89679813-1.9967052 2-2 57.812 0 54.11-.033 54.46.06z" fill="#9fc9d3"/><circle id="Oval" cx="29" cy="45" fill="#3f5c6c" r="1"/><path id="Shape" d="m52.77 34.62c-1.1553821 1.5260486-2.9695367 2.4092646-4.8833601 2.3774499-1.9138234-.0318148-3.6976192-.9748418-4.8016399-2.5384499-.1889668-.2807075-.5026878-.4519297-.841-.459h-26.488c-.3383122.0070703-.6520332.1782925-.841.459-1.1040207 1.5636081-2.8878165 2.5066351-4.8016399 2.5384499-1.91382338.0318147-3.72797803-.8514013-4.8833601-2.3774499-.23827305-.3015198-.28267671-.7129097-.11423152-1.0583289.1684452-.3454193.51993485-.5637501.90423152-.5616711h2.99c.53059053.0028231 1.0395388-.2101411 1.41-.59.5845613-.5857956.7479636-1.471111.4110341-2.2269859-.3369296-.7558748-1.10459237-1.22617-1.9310341-1.1830141h-2.89c-.37021141.0005583-.7104396-.2034607-.88433062-.530292-.17389103-.3268314-.15298842-.7229905.05433062-1.029708 1.14033158-1.5522633 2.95813234-2.4607342 4.8841346-2.4409132 1.9260022.0198209 3.7247214.9655103 4.8328654 2.5409132.1871358.2792711.4988896.4495222.835.456h26.536c.3361104-.0064778.6478642-.1767289.835-.456 1.108144-1.5754029 2.9068632-2.5210923 4.8328654-2.5409132 1.9260023-.019821 3.743803.8886499 4.8841346 2.4409132.207319.3067175.2282216.7028766.0543306 1.029708-.173891.3268313-.5141192.5308503-.8843306.530292h-2.89c-1.0696843-.0237548-1.9806904.7727248-2.1 1.836-.0457872.556491.1431457 1.1067853.5211042 1.5177915.3779584.4110061.9105251.6452971 1.4688958.6462085h2.99c.3842967-.002079.7357863.2162518.9042315.5616711.1684452.3454192.1240415.7568091-.1142315 1.0583289z" fill="#d1d4d1"/><path id="Rectangle-path" d="m20 28h18v6h-18z" fill="#95a5a5"/><path id="Shape" d="m31.86 7.6c5.37 2.441 2.617 9 .64 8.18-2.2195432-1.0305537-4.7804568-1.0305537-7 0-1.972.822-4.744-5.733.64-8.18z" fill="#fdd7ad"/><path id="Shape" d="m38 16c0 1.6568542-1.3431458 3-3 3-.0535284.0016557-.1070944-.0016922-.16-.01-.5280603 2.8345294-2.9581316 4.919231-5.84 5.01-2.880565-.094124-5.3088221-2.1772692-5.84-5.01-.0529056.0083078-.1064716.0116557-.16.01-1.0717968-.0142906-2.0545539-.5992925-2.5780762-1.534641-.5235224-.9353486-.5082744-2.0789421.04-3s1.5462794-1.4796496 2.6180762-1.465359c.1213427 1.0005997.6051849 1.9220345 1.36 2.59.2892403.2581414.6991065.331608 1.06.19 2.2195432-1.0305537 4.7804568-1.0305537 7 0 .3608935.141608.7707597.0681414 1.06-.19.7548151-.6679655 1.2386573-1.5894003 1.36-2.59.8094184-.0215922 1.593195.2849203 2.1732272.8498867s.9070607 1.340407.9067728 2.1501133z" fill="#805333"/><path id="Shape" d="m23 23v5h-4v-2c0-1.6568542 1.3431458-3 3-3z" fill="#3b97d3"/><path id="Shape" d="m35 23v5h-12v-5h2.82c1.9141001 1.3330746 4.4558999 1.3330746 6.37 0z" fill="#a56a43"/><path id="Shape" d="m39 26v2h-4v-5h1c1.6568542 0 3 1.3431458 3 3z" fill="#3b97d3"/><ellipse id="Oval" cx="29" cy="7" fill="#805333" rx="3" ry="2"/></g></svg>