<svg height="512pt" viewBox="0 -28 512.00007 512" width="512pt" xmlns="http://www.w3.org/2000/svg"><path d="m170.867188 202.664062h-86.089844v-29.5c0-10.488281 8.5-18.988281 18.988281-18.988281h48.113281c10.488282 0 18.988282 8.5 18.988282 18.988281zm0 0" fill="#516980"/><path d="m441.699219 366.398438h-46.109375v-275.484376c0-24.703124-20.101563-44.804687-44.804688-44.804687h-46.054687c-24.703125 0-44.800781 20.097656-44.800781 44.804687v168.308594h-46.113282v-168.308594c0-50.128906 40.78125-90.914062 90.914063-90.914062h46.054687c50.128906 0 90.914063 40.785156 90.914063 90.914062zm0 0" fill="#a7b6c5"/><path d="m395.589844 90.914062v38.171876h46.109375v-38.171876c0-50.128906-40.78125-90.914062-90.914063-90.914062h-46.054687c-50.128907 0-90.914063 40.785156-90.914063 90.914062v168.308594h46.113282v-168.308594c0-24.703124 20.097656-44.804687 44.804687-44.804687h46.054687c24.703126 0 44.800782 20.101563 44.800782 44.804687zm0 0" fill="#516980"/><path d="m259.929688 181.234375c-17.460938-10.53125-34.183594-17.472656-46.113282-21.683594v99.671875h46.113282zm0 0" fill="#3e4f61"/><path d="m249.101562 451.335938h-33.660156c-10.605468 0-19.203125-8.59375-19.203125-19.199219v-58.972657h72.066407v58.972657c0 10.605469-8.597657 19.199219-19.203126 19.199219zm0 0" fill="#516980"/><path d="m0 255.949219v108.550781c0 31.234375 25.320312 56.550781 56.550781 56.550781h190.496094c31.234375 0 56.550781-25.316406 56.550781-56.550781v-25.339844c0-80.59375-65.335937-145.933594-145.933594-145.933594h-94.945312c-34.636719.003907-62.71875 28.082032-62.71875 62.722657zm0 0" fill="#ff938a"/><path d="m165.652344 390.609375c0 36.445313-29.542969 65.988281-65.988282 65.988281-36.445312 0-65.992187-29.542968-65.992187-65.988281s29.546875-65.992187 65.992187-65.992187c36.445313 0 65.988282 29.546874 65.988282 65.992187zm0 0" fill="#6a829a"/><path d="m467.730469 402.636719h-98.171875v-25.539063c0-10.867187 8.8125-19.679687 19.679687-19.679687h58.8125c10.867188 0 19.679688 8.808593 19.679688 19.679687zm0 0" fill="#6a829a"/><path d="m479.042969 385.347656h-120.796875c-12.726563 0-23.902344 8.449219-27.375 20.695313l-4.714844 16.648437c-4.070312 14.367188 6.722656 28.644532 21.65625 28.644532h141.664062c14.933594 0 25.730469-14.277344 21.65625-28.644532l-4.714843-16.648437c-3.472657-12.246094-14.648438-20.695313-27.375-20.695313zm0 0" fill="#889cb0"/><path d="m170.867188 193.816406v78.511719c0 28.878906 23.410156 52.289063 52.289062 52.289063h79.726562c-6.871093-69.429688-62.402343-124.558594-132.015624-130.800782zm0 0" fill="#fb695b"/><path d="m42.265625 296.003906c23.476563 0 42.511719-19.035156 42.511719-42.511718v-60.265626h-22.058594c-34.636719.003907-62.71875 28.082032-62.71875 62.722657v40.054687zm0 0" fill="#889cb0"/><path d="m129.371094 390.609375c0 16.40625-13.300782 29.707031-29.707032 29.707031s-29.707031-13.300781-29.707031-29.707031c0-16.410156 13.300781-29.710937 29.707031-29.710937s29.707032 13.300781 29.707032 29.710937zm0 0" fill="#516980"/></svg>