<svg xmlns="http://www.w3.org/2000/svg" width="26" height="26" viewBox="0 0 26 26">
    <path fill="#21D352" fill-rule="nonzero" d="M22 6.303a1.343 1.343 0 0 0-.801-1.23A20.419 20.419 0 0 0 13 3.437a20.419 20.419 0 0 0-8.199 1.636A1.343 1.343 0 0 0 4 6.303v6.683c-.007 4.438 2.791 8.424 7.045 10.034l.96.362c.64.24 1.35.24 1.99 0l.96-.362c4.254-1.61 7.052-5.596 7.045-10.034V6.303zm-3.143 3.906l-5.431 7.203a1.134 1.134 0 0 1-.821.444h-.09a1.14 1.14 0 0 1-.796-.321L7.6 13.53a1.072 1.072 0 0 1 .014-1.533 1.148 1.148 0 0 1 1.577-.013l3.007 2.925a.229.229 0 0 0 .341-.026l4.5-5.968c.235-.322.63-.495 1.034-.454.403.041.753.29.915.652.161.362.11.78-.134 1.095h.003z"/>
</svg>
