<svg height="512" viewBox="0 0 192 192" width="512" xmlns="http://www.w3.org/2000/svg" xmlns:xlink="http://www.w3.org/1999/xlink"><linearGradient id="New_Gradient_Swatch_1" gradientUnits="userSpaceOnUse" x1="107.716" x2="164.284" y1="180.284" y2="123.716"><stop offset="0" stop-color="#ff85a6"/><stop offset="1" stop-color="#ffdc68"/></linearGradient><rect fill="#fff6d9" height="176" rx="8" width="144" x="8" y="16"/><path d="m40 176a8 8 0 0 1 -8-8v-152h-16a8 8 0 0 0 -8 8v160a8 8 0 0 0 8 8h128a8 8 0 0 0 8-8v-8z" fill="#fff2c6"/><rect fill="#ffdc68" height="32" rx="8" width="64" x="48"/><path d="m64 16v-16h-8a8 8 0 0 0 -8 8v16a8 8 0 0 0 8 8h48a8 8 0 0 0 8-8h-40a8 8 0 0 1 -8-8z" fill="#ffd342"/><g fill="#ffe58e"><circle cx="40" cy="72" r="8"/><circle cx="40" cy="104" r="8"/><circle cx="40" cy="136" r="8"/><path d="m64 64h48v16h-48z"/><path d="m64 96h48v16h-48z"/><path d="m64 128h48v16h-48z"/></g><circle cx="136" cy="152" fill="url(#New_Gradient_Swatch_1)" r="40"/><path d="m136 168a7.961 7.961 0 0 1 -3.573-.846l-16-8 7.156-14.31 9.683 4.841 12.083-18.123 13.312 8.875-16 24a8 8 0 0 1 -6.661 3.563z" fill="#fff"/></svg>