<svg height="512pt" viewBox="-13 0 512 512" width="512pt" xmlns="http://www.w3.org/2000/svg"><path d="m425.648438 186.167969v48.132812l-171.566407 134.703125c-6.226562 4.886719-14.980469 4.886719-21.203125 0l-171.570312-134.703125v-48.132812h-61.308594v308.089843c0 9.800782 7.945312 17.742188 17.742188 17.742188h451.472656c9.800781 0 17.742187-7.945312 17.742187-17.742188v-308.089843zm0 0" fill="#fda537"/><path d="m30.039062 494.257812v-308.089843h-30.039062v308.089843c0 9.800782 7.945312 17.742188 17.742188 17.742188h30.039062c-9.796875 0-17.742188-7.945312-17.742188-17.742188zm0 0" fill="#f9972d"/><path d="m425.648438 186.167969v-48.136719l61.308593 48.136719zm0 0" fill="#fda537"/><path d="m61.308594 186.167969h-61.308594l61.308594-48.136719zm0 0" fill="#fda537"/><path d="m61.308594 138.03125-61.308594 48.136719h30.039062l31.269532-24.550781zm0 0" fill="#f9972d"/><path d="m61.308594 186.167969h-61.308594l61.308594 48.132812zm0 0" fill="#feb644"/><path d="m30.039062 186.167969h-30.039062l30.039062 23.582031zm0 0" fill="#fda537"/><path d="m425.648438 186.167969v48.132812l61.308593-48.132812zm0 0" fill="#feb644"/><path d="m254.082031 369.003906c-6.226562 4.886719-14.980469 4.886719-21.203125 0l-36.671875-28.789062-196.207031 154.042968c0 9.800782 7.945312 17.742188 17.742188 17.742188h451.472656c9.800781 0 17.742187-7.945312 17.742187-17.742188l-196.207031-154.046874zm0 0" fill="#feb644"/><path d="m47.78125 512c-9.796875 0-17.742188-7.945312-17.742188-17.742188v-23.582031l-30.039062 23.582031c0 2.585938.566406 5.035157 1.5625 7.25 2.042969 4.554688 5.945312 8.089844 10.746094 9.636719 1.710937.550781 3.535156.855469 5.433594.855469zm0 0" fill="#fda537"/><path d="m232.78125 368.96875c6.28125 4.929688 15.113281 4.929688 21.394531 0l173.09375-135.898438v-219.523437c0-7.484375-6.0625-13.546875-13.542969-13.546875h-340.496093c-7.480469 0-13.542969 6.0625-13.542969 13.546875v219.523437zm0 0" fill="#e4eaf8"/><path d="m90.394531 12.339844c0-5.054688 2.449219-9.53125 6.210938-12.339844h-23.375c-7.480469 0-13.542969 6.0625-13.542969 13.546875v219.523437l30.710938 24.109376v-244.839844zm0 0" fill="#d8dce5"/><path d="m244.320312 103.152344c-4.242187 0-7.679687-3.4375-7.679687-7.679688v-31.070312c0-4.238282 3.4375-7.675782 7.679687-7.675782 4.238282 0 7.675782 3.4375 7.675782 7.675782v31.070312c0 4.242188-3.4375 7.679688-7.675782 7.679688zm0 0" fill="#8d909f"/><path d="m292.542969 141.4375v-6.28125c0-26.90625-21.320313-49.414062-48.222657-49.863281-27.484374-.460938-49.90625 21.679687-49.90625 49.058593v7.085938c0 28.550781-11.289062 55.945312-31.40625 76.207031h160.945313c-20.117187-20.257812-31.410156-47.652343-31.410156-76.207031zm0 0" fill="#ffc850"/><path d="m225.121094 141.4375v-7.085938c0-21.71875 14.117187-40.125 33.667968-46.585937-4.558593-1.523437-9.414062-2.386719-14.46875-2.472656-27.484374-.460938-49.90625 21.679687-49.90625 49.058593v7.085938c0 28.550781-11.289062 55.945312-31.40625 76.207031h30.707032c20.117187-20.257812 31.40625-47.652343 31.40625-76.207031zm0 0" fill="#feb644"/><path d="m214.28125 248.3125c.324219 16.3125 13.644531 29.441406 30.039062 29.441406 16.390626 0 29.710938-13.128906 30.039063-29.441406zm0 0" fill="#ffc850"/><path d="m244.320312 248.3125h-30.039062c.324219 16.3125 13.644531 29.441406 30.039062 29.441406 5.472657 0 10.601563-1.472656 15.019532-4.027344-8.816406-5.101562-14.804688-14.546874-15.019532-25.414062zm0 0" fill="#feb644"/><path d="m325.847656 215.597656h-164.734375c-6.925781 0-12.59375 5.667969-12.59375 12.589844v9.582031c0 6.921875 5.667969 12.589844 12.59375 12.589844h164.734375c6.921875 0 12.589844-5.667969 12.589844-12.589844v-9.582031c0-6.921875-5.667969-12.589844-12.589844-12.589844zm0 0" fill="#feb644"/><path d="m325.847656 227.613281h-164.734375c-4.515625 0-8.480469-2.414062-10.707031-6.007812-1.1875 1.921875-1.886719 4.171875-1.886719 6.582031v9.578125c0 6.925781 5.667969 12.59375 12.59375 12.59375h164.734375c6.921875 0 12.589844-5.667969 12.589844-12.59375v-9.578125c0-2.410156-.699219-4.660156-1.886719-6.582031-2.222656 3.59375-6.191406 6.007812-10.703125 6.007812zm0 0" fill="#f9972d"/></svg>